<svg xmlns="http://www.w3.org/2000/svg" viewBox="0 0 64 64">
  <defs>
    <linearGradient id="g" x1="0" y1="0" x2="0" y2="1">
      <stop offset="0%" stop-color="#1a5c3a"/>
      <stop offset="100%" stop-color="#0f3d26"/>
    </linearGradient>
  </defs>
  <rect width="64" height="64" rx="12" fill="url(#g)"/>
  <path d="M16 18v28c0 2 1.5 3 3 3h12V21H19c-1.5 0-3-1-3-3z" fill="#f5f0e8" opacity="0.9"/>
  <path d="M48 18v28c0 2-1.5 3-3 3H33V21h12c1.5 0 3-1 3-3z" fill="#f5f0e8" opacity="0.9"/>
  <path d="M31 16v32" stroke="#c9a84c" stroke-width="2" fill="none"/>
  <path d="M31 16L16 18v28l15 2z" fill="#f5f0e8" opacity="0.95"/>
  <path d="M31 16l15 2v28l-15 2z" fill="#ede5d8" opacity="0.95"/>
  <path d="M22 26h6M22 31h6M22 36h4" stroke="#1a5c3a" stroke-width="1.5" stroke-linecap="round" fill="none" opacity="0.6"/>
  <path d="M38 26h6M38 31h6M40 36h4" stroke="#1a5c3a" stroke-width="1.5" stroke-linecap="round" fill="none" opacity="0.6"/>
</svg>
